#N canvas 0 53 410 291 10;
#N canvas 35 65 745 340 gemwin 0;
#X obj 28 33 gemkeyboard;
#X obj 28 55 sel 24;
#X obj 139 152 loadbang;
#X msg 28 193 0 \, destroy;
#X obj 28 100 tgl 15 0 empty empty empty 17 7 0 10 -262144 -1 -1 0
1;
#X obj 28 120 sel 0 1;
#X msg 47 146 create \, 1;
#X obj 100 33 key;
#X obj 100 55 sel 113;
#X obj 163 38 - 6.4;
#X obj 163 64 pack f f;
#X obj 163 12 gemmouse 12.8 -8;
#X obj 199 38 + 4;
#X obj 28 218 gemwin 60;
#X obj 163 86 s mouse;
#X obj 289 4 loadbang;
#X msg 289 26 \; pd dsp 1;
#X obj 527 77 until;
#X msg 566 77 0;
#X obj 527 109 f;
#X obj 559 110 + 1;
#X obj 527 204 s circle_id;
#X obj 527 7 gemhead 1;
#X msg 527 154 0 \, 1 \, 2 \, 3 \, 4 \, 5 \, 6 \, 7 \, 8 \, 9;
#X obj 527 131 t b a;
#X obj 527 178 list append;
#X obj 672 78 s gemlist;
#X obj 527 29 t b b a;
#X obj 527 54 f;
#X obj 642 16 r number;
#X msg 136 224 reset \, fullscreen 1 \, color 0.9 0.95 1 \, dimen 1680
1050 \, FSAA 2 \, frame 60 \, cursor 0 \, border 0;
#X msg 139 176 reset \, fullscreen 0 \, color 0.9 0.95 1 \, dimen 960
600 \, FSAA 5 \, frame 60 \, cursor 0;
#X connect 0 0 1 0;
#X connect 1 0 4 0;
#X connect 2 0 31 0;
#X connect 3 0 13 0;
#X connect 4 0 5 0;
#X connect 5 0 3 0;
#X connect 5 1 6 0;
#X connect 6 0 13 0;
#X connect 7 0 8 0;
#X connect 8 0 4 0;
#X connect 9 0 10 0;
#X connect 10 0 14 0;
#X connect 11 0 9 0;
#X connect 11 1 12 0;
#X connect 12 0 10 1;
#X connect 15 0 16 0;
#X connect 17 0 19 0;
#X connect 18 0 19 1;
#X connect 19 0 20 0;
#X connect 19 0 24 0;
#X connect 20 0 19 1;
#X connect 22 0 27 0;
#X connect 23 0 25 0;
#X connect 24 0 23 0;
#X connect 24 1 25 1;
#X connect 25 0 21 0;
#X connect 27 0 28 0;
#X connect 27 1 18 0;
#X connect 27 2 26 0;
#X connect 28 0 17 0;
#X connect 29 0 28 1;
#X connect 30 0 13 0;
#X connect 31 0 13 0;
#X restore 8 13 pd gemwin;
#N canvas 162 431 145 210 draw_cursor 0;
#X obj -10 88 unpack f f;
#X obj -35 124 translateXYZ;
#X obj -35 9 gemhead 50;
#X obj -10 66 r mouse;
#X obj -35 151 circle 0.6;
#X obj -35 40 color 0.9 0.3 0.3;
#X connect 0 0 1 1;
#X connect 0 1 1 2;
#X connect 1 0 4 0;
#X connect 2 0 5 0;
#X connect 3 0 0 0;
#X connect 5 0 1 0;
#X restore 8 65 pd draw_cursor;
#N canvas 207 419 272 527 collision_detection 0;
#X obj 15 9 r circle_id;
#X obj 142 96 r mouse;
#X obj 15 51 t a a;
#X obj 42 77 t a a;
#X obj 42 141 tabread x;
#X obj 69 101 tabread y;
#X obj 142 119 unpack;
#X obj 42 163 -;
#X obj 69 163 -;
#X obj 42 187 t a a;
#X obj 42 209 *;
#X obj 81 188 t a a;
#X obj 81 210 *;
#X obj 42 234 +;
#X obj 42 257 sqrt;
#X obj 42 284 <;
#X obj 15 331 tabread c;
#X obj 15 355 sel;
#X obj 15 307 t a a;
#X obj 30 419 pack f f;
#X obj 30 441 t a a;
#X msg 30 467 \$2 \$1;
#X obj 151 463 tabwrite c;
#X obj 151 437 unpack f f;
#X obj 30 377 b;
#X obj 30 399 f;
#X obj 30 489 s collision;
#X obj 15 29 route 5;
#X obj 143 204 tabread a;
#X obj 144 226 + 0.6;
#X connect 0 0 27 0;
#X connect 1 0 6 0;
#X connect 2 0 18 0;
#X connect 2 1 3 0;
#X connect 3 0 4 0;
#X connect 3 1 5 0;
#X connect 3 1 28 0;
#X connect 4 0 7 0;
#X connect 5 0 8 0;
#X connect 6 0 7 1;
#X connect 6 1 8 1;
#X connect 7 0 9 0;
#X connect 8 0 11 0;
#X connect 9 0 10 0;
#X connect 9 1 10 1;
#X connect 10 0 13 0;
#X connect 11 0 12 0;
#X connect 11 1 12 1;
#X connect 12 0 13 1;
#X connect 13 0 14 0;
#X connect 14 0 15 0;
#X connect 15 0 17 1;
#X connect 15 0 25 1;
#X connect 16 0 17 0;
#X connect 17 1 24 0;
#X connect 18 0 16 0;
#X connect 18 1 19 1;
#X connect 19 0 20 0;
#X connect 20 0 21 0;
#X connect 20 1 23 0;
#X connect 21 0 26 0;
#X connect 23 0 22 0;
#X connect 23 1 22 1;
#X connect 24 0 25 0;
#X connect 25 0 19 0;
#X connect 27 0 2 0;
#X connect 28 0 29 0;
#X connect 29 0 15 1;
#X restore 9 92 pd collision_detection;
#X obj 316 27 table y 50;
#X obj 316 48 table x 50;
#X obj 316 70 table s 50;
#X obj 316 93 table r 50;
#X obj 317 113 table g 50;
#X obj 317 134 table b 50;
#X obj 313 212 table c 50;
#X obj 313 233 table a 50;
#N canvas 291 122 446 360 preset_manager 0;
#X obj 18 232 textfile;
#N canvas 154 167 175 352 get.data 0;
#X msg 13 36 y \, x \, s \, r \, g \, b;
#X obj 40 82 t b b a;
#X obj 40 128 until;
#X obj 40 151 f;
#X obj 81 150 + 1;
#X msg 82 129 0;
#X obj 40 184 tabread;
#X msg 40 207 add2 \$1;
#X msg 13 239 b 0 1 0 0.795276 0.952756 0.992126 0.307087 0.559055
;
#X obj 13 60 t b a;
#X obj 13 9 inlet;
#X obj 13 264 outlet;
#X msg 126 155 set \$1;
#X obj 126 133 list;
#X obj 40 104 f;
#X obj 106 69 r number;
#X connect 0 0 9 0;
#X connect 1 0 14 0;
#X connect 1 1 5 0;
#X connect 1 2 13 0;
#X connect 2 0 3 0;
#X connect 3 0 4 0;
#X connect 3 0 6 0;
#X connect 4 0 3 1;
#X connect 5 0 3 1;
#X connect 6 0 7 0;
#X connect 7 0 8 0;
#X connect 8 0 11 0;
#X connect 9 0 8 0;
#X connect 9 1 1 0;
#X connect 10 0 0 0;
#X connect 12 0 8 0;
#X connect 12 0 6 0;
#X connect 13 0 12 0;
#X connect 14 0 2 0;
#X connect 15 0 14 1;
#X restore 37 109 pd get.data;
#X obj 37 133 list prepend add;
#X obj 37 155 list trim;
#X msg 104 171 clear;
#X obj 18 66 t a b b;
#X msg 18 201 write \$1;
#X obj 18 178 list;
#X obj 218 27 loadbang;
#X obj 218 101 t b a;
#X obj 218 77 list;
#X msg 245 123 read \$1 \, rewind;
#X obj 218 169 textfile;
#X obj 218 146 until;
#X obj 252 326 s;
#X obj 218 241 t a a;
#X obj 218 219 list;
#X msg 305 272 symbol \$1;
#X obj 218 274 list split 1;
#X obj 252 300 list prepend 0;
#X obj 317 173 route y;
#X obj 218 191 t a a;
#X obj 317 195 list length;
#X obj 317 217 s number;
#X obj 18 12 inlet;
#X msg 18 35 bubblebells.pst;
#X msg 218 51 bubblebells.pst;
#X connect 1 0 2 0;
#X connect 2 0 3 0;
#X connect 3 0 0 0;
#X connect 4 0 0 0;
#X connect 5 0 7 0;
#X connect 5 1 1 0;
#X connect 5 2 4 0;
#X connect 6 0 0 0;
#X connect 7 0 6 0;
#X connect 8 0 26 0;
#X connect 9 0 13 0;
#X connect 9 1 11 0;
#X connect 10 0 9 0;
#X connect 11 0 12 0;
#X connect 12 0 21 0;
#X connect 12 1 13 1;
#X connect 13 0 12 0;
#X connect 15 0 18 0;
#X connect 15 1 17 0;
#X connect 16 0 15 0;
#X connect 17 0 14 1;
#X connect 18 1 19 0;
#X connect 19 0 14 0;
#X connect 20 0 22 0;
#X connect 21 0 16 0;
#X connect 21 1 20 0;
#X connect 22 0 23 0;
#X connect 24 0 25 0;
#X connect 25 0 5 0;
#X connect 26 0 10 0;
#X restore 8 165 pd preset_manager;
#X obj 8 145 bng 15 250 50 0 empty empty empty 17 7 0 10 -262144 -1
-1;
#X text 27 145 save current layout;
#N canvas 143 355 428 363 add_bubble 0;
#X obj 51 73 hsl 128 15 -6.4 6.4 0 0 empty empty empty -2 -8 0 10 -262144
-1 -1 0 1;
#X obj 31 -12 vsl 15 80 -4 4 0 0 empty empty empty 0 -9 0 10 -262144
-1 -1 0 1;
#X obj 261 11 hsl 128 15 0 1 0 0 empty empty empty -2 -8 0 10 -258113
-1 -1 0 1;
#X obj 261 29 hsl 128 15 0 1 0 0 empty empty empty -2 -8 0 10 -4034
-1 -1 0 1;
#X obj 261 47 hsl 128 15 0 1 0 0 empty empty empty -2 -8 0 10 -4160
-1 -1 0 1;
#X floatatom 268 82 10 0 0 0 - - -;
#X obj 15 177 bng 15 250 50 0 empty empty empty 17 7 0 10 -262144 -1
-1;
#X obj 15 206 f;
#X obj 44 174 r number;
#X obj 15 229 + 1;
#X obj 15 252 t a a;
#X obj 42 287 s number;
#X obj 149 178 tabwrite x;
#X obj 167 205 tabwrite y;
#X obj 187 236 tabwrite s;
#X obj 209 259 tabwrite r;
#X obj 231 282 tabwrite g;
#X obj 251 305 tabwrite b;
#X obj 15 274 - 1;
#X connect 0 0 12 0;
#X connect 1 0 13 0;
#X connect 2 0 15 0;
#X connect 3 0 16 0;
#X connect 4 0 17 0;
#X connect 5 0 14 0;
#X connect 6 0 7 0;
#X connect 7 0 9 0;
#X connect 8 0 7 1;
#X connect 9 0 10 0;
#X connect 10 0 18 0;
#X connect 10 1 11 0;
#X connect 18 0 12 1;
#X connect 18 0 13 1;
#X connect 18 0 14 1;
#X connect 18 0 15 1;
#X connect 18 0 16 1;
#X connect 18 0 17 1;
#X restore 8 191 pd add_bubble;
#N canvas 8 443 233 349 draw_bubbles 0;
#X obj 16 104 gemlist;
#X obj 16 183 separator;
#X obj 16 220 translateXYZ;
#X obj 16 330 circle;
#X obj 132 183 tabread r;
#X obj 132 204 tabread g;
#X obj 132 225 tabread b;
#X obj 131 137 tabread x;
#X obj 133 160 tabread y;
#X obj 16 82 t b a;
#X obj 94 37 r gemlist;
#X obj 16 37 r circle_id;
#X obj 16 59 route 9;
#X obj 133 246 tabread a;
#X obj 16 300 alpha;
#X obj 16 275 colorRGB 0 0 0 0.4;
#X connect 0 0 1 0;
#X connect 1 0 2 0;
#X connect 2 0 15 0;
#X connect 4 0 15 1;
#X connect 5 0 15 2;
#X connect 6 0 15 3;
#X connect 7 0 2 1;
#X connect 8 0 2 2;
#X connect 9 0 0 0;
#X connect 9 1 4 0;
#X connect 9 1 5 0;
#X connect 9 1 6 0;
#X connect 9 1 7 0;
#X connect 9 1 8 0;
#X connect 9 1 13 0;
#X connect 10 0 0 1;
#X connect 11 0 12 0;
#X connect 12 0 9 0;
#X connect 13 0 3 1;
#X connect 14 0 3 0;
#X connect 15 0 14 0;
#X restore 8 39 pd draw_bubbles;
#N canvas 514 355 378 226 anim_bubbles 0;
#X obj 154 13 r circle_id;
#X obj 154 106 tabread a;
#X obj 154 177 tabwrite a;
#X obj 154 35 route 6;
#X obj 154 62 t a a a;
#X obj 173 86 tabread s;
#X obj 154 154 +;
#X obj 154 132 * 0.97;
#X obj 204 132 * 0.03;
#X msg 9 32 \$2 \$1;
#X obj 9 54 route 1;
#X obj 9 144 tabwrite a;
#X obj 9 10 r collision;
#X obj 9 100 tabread a;
#X obj 9 76 t a a;
#X obj 9 122 * 0.2;
#X connect 0 0 3 0;
#X connect 1 0 7 0;
#X connect 3 0 4 0;
#X connect 4 0 1 0;
#X connect 4 1 5 0;
#X connect 4 2 2 1;
#X connect 5 0 8 0;
#X connect 6 0 2 0;
#X connect 7 0 6 0;
#X connect 8 0 6 1;
#X connect 9 0 10 0;
#X connect 10 0 14 0;
#X connect 12 0 9 0;
#X connect 13 0 15 0;
#X connect 14 0 13 0;
#X connect 14 1 11 1;
#X connect 15 0 11 0;
#X restore 9 118 pd anim_bubbles;
#N canvas 102 195 407 300 sounds 0;
#X obj -166 -3 r collision;
#X msg -166 19 \$2 \$1;
#X obj -165 41 route 1;
#X obj -1 13 catch~ sumL;
#X obj 45 39 catch~ sumR;
#X obj 0 68 dac~ 1 2;
#X obj -165 85 f;
#X obj -106 84 + 1;
#X obj -165 63 t b a;
#X obj -106 106 mod 4;
#X obj -165 127 pack f f;
#X obj -165 149 route 0 1 2 3;
#N canvas 53 125 395 441 pling 0;
#X obj 17 345 *~;
#X obj 16 321 osc~ 500;
#X obj 72 289 vline~;
#X obj 72 311 dbtorms~;
#X obj 16 291 mtof;
#X obj 16 94 t a a;
#X obj 16 124 * -1;
#X obj 16 148 + 2.5;
#X obj 16 194 + 30;
#X obj 16 170 * 30;
#X obj 72 154 exp;
#X obj 72 131 * 1.3;
#X msg 72 198 84 3 \, 0 \$1 3;
#X obj 72 176 * 200;
#X obj 16 39 t a a;
#X obj 120 81 tabread x;
#X obj 175 155 atan;
#X msg 175 132 1;
#X obj 175 180 * 2;
#X obj 175 110 loadbang;
#X obj 65 347 cos;
#X obj 91 348 sin;
#X obj 120 150 *;
#X obj 120 104 + 6.4;
#X obj 120 126 / 12.8;
#X obj 16 370 *~;
#X obj 45 374 *~;
#X obj 15 419 throw~ sumL;
#X obj 45 397 throw~ sumR;
#X obj 16 17 inlet;
#X obj 16 66 tabread a;
#X obj 16 225 / 2;
#X obj 16 247 int;
#X obj 16 269 * 2;
#X connect 0 0 25 0;
#X connect 0 0 26 0;
#X connect 1 0 0 0;
#X connect 2 0 3 0;
#X connect 3 0 0 1;
#X connect 4 0 1 0;
#X connect 5 0 6 0;
#X connect 5 1 11 0;
#X connect 6 0 7 0;
#X connect 7 0 9 0;
#X connect 8 0 31 0;
#X connect 9 0 8 0;
#X connect 10 0 13 0;
#X connect 11 0 10 0;
#X connect 12 0 2 0;
#X connect 13 0 12 0;
#X connect 14 0 30 0;
#X connect 14 1 15 0;
#X connect 15 0 23 0;
#X connect 16 0 18 0;
#X connect 17 0 16 0;
#X connect 18 0 22 1;
#X connect 19 0 17 0;
#X connect 20 0 25 1;
#X connect 21 0 26 1;
#X connect 22 0 20 0;
#X connect 22 0 21 0;
#X connect 23 0 24 0;
#X connect 24 0 22 0;
#X connect 25 0 27 0;
#X connect 26 0 28 0;
#X connect 29 0 14 0;
#X connect 30 0 5 0;
#X connect 31 0 32 0;
#X connect 32 0 33 0;
#X connect 33 0 4 0;
#X restore -165 248 pd pling;
#N canvas 53 125 395 441 pling 0;
#X obj 17 345 *~;
#X obj 16 321 osc~ 500;
#X obj 72 289 vline~;
#X obj 72 311 dbtorms~;
#X obj 16 291 mtof;
#X obj 16 94 t a a;
#X obj 16 124 * -1;
#X obj 16 148 + 2.5;
#X obj 16 194 + 30;
#X obj 16 170 * 30;
#X obj 72 154 exp;
#X obj 72 131 * 1.3;
#X msg 72 198 84 3 \, 0 \$1 3;
#X obj 72 176 * 200;
#X obj 16 39 t a a;
#X obj 120 81 tabread x;
#X obj 175 155 atan;
#X msg 175 132 1;
#X obj 175 180 * 2;
#X obj 175 110 loadbang;
#X obj 65 347 cos;
#X obj 91 348 sin;
#X obj 120 150 *;
#X obj 120 104 + 6.4;
#X obj 120 126 / 12.8;
#X obj 16 370 *~;
#X obj 45 374 *~;
#X obj 15 419 throw~ sumL;
#X obj 45 397 throw~ sumR;
#X obj 16 17 inlet;
#X obj 16 66 tabread a;
#X obj 16 225 / 2;
#X obj 16 247 int;
#X obj 16 269 * 2;
#X connect 0 0 25 0;
#X connect 0 0 26 0;
#X connect 1 0 0 0;
#X connect 2 0 3 0;
#X connect 3 0 0 1;
#X connect 4 0 1 0;
#X connect 5 0 6 0;
#X connect 5 1 11 0;
#X connect 6 0 7 0;
#X connect 7 0 9 0;
#X connect 8 0 31 0;
#X connect 9 0 8 0;
#X connect 10 0 13 0;
#X connect 11 0 10 0;
#X connect 12 0 2 0;
#X connect 13 0 12 0;
#X connect 14 0 30 0;
#X connect 14 1 15 0;
#X connect 15 0 23 0;
#X connect 16 0 18 0;
#X connect 17 0 16 0;
#X connect 18 0 22 1;
#X connect 19 0 17 0;
#X connect 20 0 25 1;
#X connect 21 0 26 1;
#X connect 22 0 20 0;
#X connect 22 0 21 0;
#X connect 23 0 24 0;
#X connect 24 0 22 0;
#X connect 25 0 27 0;
#X connect 26 0 28 0;
#X connect 29 0 14 0;
#X connect 30 0 5 0;
#X connect 31 0 32 0;
#X connect 32 0 33 0;
#X connect 33 0 4 0;
#X restore -147 228 pd pling;
#N canvas 53 125 395 441 pling 0;
#X obj 17 345 *~;
#X obj 16 321 osc~ 500;
#X obj 72 289 vline~;
#X obj 72 311 dbtorms~;
#X obj 16 291 mtof;
#X obj 16 94 t a a;
#X obj 16 124 * -1;
#X obj 16 148 + 2.5;
#X obj 16 194 + 30;
#X obj 16 170 * 30;
#X obj 72 154 exp;
#X obj 72 131 * 1.3;
#X msg 72 198 84 3 \, 0 \$1 3;
#X obj 72 176 * 200;
#X obj 16 39 t a a;
#X obj 120 81 tabread x;
#X obj 175 155 atan;
#X msg 175 132 1;
#X obj 175 180 * 2;
#X obj 175 110 loadbang;
#X obj 65 347 cos;
#X obj 91 348 sin;
#X obj 120 150 *;
#X obj 120 104 + 6.4;
#X obj 120 126 / 12.8;
#X obj 16 370 *~;
#X obj 45 374 *~;
#X obj 15 419 throw~ sumL;
#X obj 45 397 throw~ sumR;
#X obj 16 17 inlet;
#X obj 16 66 tabread a;
#X obj 16 225 / 2;
#X obj 16 247 int;
#X obj 16 269 * 2;
#X connect 0 0 25 0;
#X connect 0 0 26 0;
#X connect 1 0 0 0;
#X connect 2 0 3 0;
#X connect 3 0 0 1;
#X connect 4 0 1 0;
#X connect 5 0 6 0;
#X connect 5 1 11 0;
#X connect 6 0 7 0;
#X connect 7 0 9 0;
#X connect 8 0 31 0;
#X connect 9 0 8 0;
#X connect 10 0 13 0;
#X connect 11 0 10 0;
#X connect 12 0 2 0;
#X connect 13 0 12 0;
#X connect 14 0 30 0;
#X connect 14 1 15 0;
#X connect 15 0 23 0;
#X connect 16 0 18 0;
#X connect 17 0 16 0;
#X connect 18 0 22 1;
#X connect 19 0 17 0;
#X connect 20 0 25 1;
#X connect 21 0 26 1;
#X connect 22 0 20 0;
#X connect 22 0 21 0;
#X connect 23 0 24 0;
#X connect 24 0 22 0;
#X connect 25 0 27 0;
#X connect 26 0 28 0;
#X connect 29 0 14 0;
#X connect 30 0 5 0;
#X connect 31 0 32 0;
#X connect 32 0 33 0;
#X connect 33 0 4 0;
#X restore -128 207 pd pling;
#N canvas 53 125 395 441 pling 0;
#X obj 17 345 *~;
#X obj 16 321 osc~ 500;
#X obj 72 289 vline~;
#X obj 72 311 dbtorms~;
#X obj 16 291 mtof;
#X obj 16 94 t a a;
#X obj 16 124 * -1;
#X obj 16 148 + 2.5;
#X obj 16 194 + 30;
#X obj 16 170 * 30;
#X obj 72 154 exp;
#X obj 72 131 * 1.3;
#X msg 72 198 84 3 \, 0 \$1 3;
#X obj 72 176 * 200;
#X obj 16 39 t a a;
#X obj 120 81 tabread x;
#X obj 175 155 atan;
#X msg 175 132 1;
#X obj 175 180 * 2;
#X obj 175 110 loadbang;
#X obj 65 347 cos;
#X obj 91 348 sin;
#X obj 120 150 *;
#X obj 120 104 + 6.4;
#X obj 120 126 / 12.8;
#X obj 16 370 *~;
#X obj 45 374 *~;
#X obj 15 419 throw~ sumL;
#X obj 45 397 throw~ sumR;
#X obj 16 17 inlet;
#X obj 16 66 tabread a;
#X obj 16 225 / 2;
#X obj 16 247 int;
#X obj 16 269 * 2;
#X connect 0 0 25 0;
#X connect 0 0 26 0;
#X connect 1 0 0 0;
#X connect 2 0 3 0;
#X connect 3 0 0 1;
#X connect 4 0 1 0;
#X connect 5 0 6 0;
#X connect 5 1 11 0;
#X connect 6 0 7 0;
#X connect 7 0 9 0;
#X connect 8 0 31 0;
#X connect 9 0 8 0;
#X connect 10 0 13 0;
#X connect 11 0 10 0;
#X connect 12 0 2 0;
#X connect 13 0 12 0;
#X connect 14 0 30 0;
#X connect 14 1 15 0;
#X connect 15 0 23 0;
#X connect 16 0 18 0;
#X connect 17 0 16 0;
#X connect 18 0 22 1;
#X connect 19 0 17 0;
#X connect 20 0 25 1;
#X connect 21 0 26 1;
#X connect 22 0 20 0;
#X connect 22 0 21 0;
#X connect 23 0 24 0;
#X connect 24 0 22 0;
#X connect 25 0 27 0;
#X connect 26 0 28 0;
#X connect 29 0 14 0;
#X connect 30 0 5 0;
#X connect 31 0 32 0;
#X connect 32 0 33 0;
#X connect 33 0 4 0;
#X restore -109 187 pd pling;
#X connect 0 0 1 0;
#X connect 1 0 2 0;
#X connect 2 0 8 0;
#X connect 3 0 5 0;
#X connect 4 0 5 1;
#X connect 6 0 7 0;
#X connect 6 0 10 0;
#X connect 7 0 9 0;
#X connect 8 0 6 0;
#X connect 8 1 10 1;
#X connect 9 0 6 1;
#X connect 10 0 11 0;
#X connect 11 0 12 0;
#X connect 11 1 13 0;
#X connect 11 2 14 0;
#X connect 11 3 15 0;
#X restore 8 218 pd sounds;
#X connect 12 0 11 0;
